<?xml version="1.0" encoding="UTF-8"?>
<svg width="18px" height="34px" viewBox="0 0 18 34" version="1.1" xmlns="http://www.w3.org/2000/svg" xmlns:xlink="http://www.w3.org/1999/xlink">
    <!-- Generator: Sketch 42 (36781) - http://www.bohemiancoding.com/sketch -->
    <title>Group 6</title>
    <desc>Created with Sketch.</desc>
    <defs></defs>
    <g id="screen_design" stroke="none" stroke-width="1" fill="none" fill-rule="evenodd">
        <g id="iPhone-SE" transform="translate(-109.000000, -510.000000)">
            <g id="Group-6" transform="translate(118.045098, 527.539288) rotate(-13.000000) translate(-118.045098, -527.539288) translate(111.545098, 511.039288)">
                <g id="Group-5" transform="translate(0.000000, 0.000000)">
                    <g id="Group-4" transform="translate(2.824083, 0.000000)" opacity="0.692538496">
                        <path d="M0.322995752,6.68880431 C0.322995752,6.68880431 -0.824723579,3.5305277 1.20682022,1.77136886 C3.23836403,0.012210025 6.06314587,-0.384517886 7.03687713,0.350467943 C8.01060838,1.08545377 7.29921852,2.94251731 6.56501215,3.08474426 C5.83080577,3.2269712 3.30186191,2.85776765 3.11204791,4.07612958 C2.92223391,5.29449152 3.28962837,7.01050112 3.28962837,7.01050112 L0.322995752,6.68880431 Z" id="Path-9" stroke="#2364AA"></path>
                        <path d="M0.548814126,7.03312811 C0.548814126,7.03312811 -0.657987078,3.7122709 1.47813579,1.86255473 C3.61425865,0.0128385682 6.58445358,-0.404311956 7.60831021,0.368509202 C8.63216685,1.14133036 7.88415632,3.09399113 7.11215474,3.24353958 C6.34015316,3.39308803 3.68102525,3.00487876 3.48144008,4.28595908 C3.2818549,5.5670394 3.66816196,7.37138511 3.66816196,7.37138511 L0.548814126,7.03312811 Z" id="Path-9" fill="#4B905E"></path>
                    </g>
                    <g id="Group" transform="translate(0.000000, 4.738748)" stroke="#2364AA" fill="#F7F9F9">
                        <path d="M0.0184739648,5.61493663 C0.0184739648,5.61493663 0.927762108,11.5418836 1.6311749,17.1976736 C2.33458769,22.8534635 2.16778496,26.0623902 4.66179781,26.7653919 C10.2976516,28.3540026 11.6730966,22.9528466 11.6730966,22.9528466 C11.6730966,22.9528466 7.40713904,26.2072399 7.06607193,21.7280817 L8.84967239,5.48277162 C8.84967239,5.48277162 9.42804274,0.0632297986 4.72325835,0.0632297986 C0.0184739648,0.0632297986 0.0184739648,5.61493663 0.0184739648,5.61493663 Z" id="Path-3"></path>
                    </g>
                </g>
                <path d="M0.0184739648,9.71791948 C0.0184739648,9.71791948 1.02893511,15.8205956 1.81061394,21.6440751 C2.59229277,27.4675546 2.40693054,30.7716233 5.17844261,31.4954686 C11.4413762,33.1311802 12.9698617,27.5698843 12.9698617,27.5698843 C12.9698617,27.5698843 8.2292474,30.9207678 7.85023107,26.3088061 L9.8322859,9.58183589 C9.8322859,9.58183589 10.4750093,4.00160906 5.24674163,4.00160906 C0.0184739648,4.00160906 0.0184739648,9.71791948 0.0184739648,9.71791948 Z" id="Path-3" fill="#FF5023" opacity="0.571897645"></path>
            </g>
        </g>
    </g>
</svg>