<?xml version="1.0" encoding="UTF-8"?>
<svg width="104px" height="33px" viewBox="0 0 104 33" version="1.1" xmlns="http://www.w3.org/2000/svg" xmlns:xlink="http://www.w3.org/1999/xlink">
    <!-- Generator: Sketch 42 (36781) - http://www.bohemiancoding.com/sketch -->
    <title>logo@1.5x</title>
    <desc>Created with Sketch.</desc>
    <defs></defs>
    <g id="Add_new_goal_flow_new_user" stroke="none" stroke-width="1" fill="none" fill-rule="evenodd">
        <g id="180---iPhone-6-Plus" transform="translate(-38.000000, -73.000000)">
            <g id="logo" transform="translate(38.000000, 74.000000)">
                <g id="Group-2">
                    <path d="M25.5854042,16.4011662 L13.1799156,16.4011662 L13.1799156,21.1358601 L19.3663797,21.1358601 C19.3663797,24.4338192 16.4685097,26.3276968 13.5380793,26.3276968 C9.76108017,26.3276968 6.70040844,22.6052478 6.70040844,18.0338192 C6.70040844,13.3644315 9.76108017,9.60932945 13.5380793,9.60932945 C15.914984,9.60932945 17.9662852,10.5562682 19.5291814,13.0705539 L23.534103,8.66239067 C21.1897586,5.82157434 17.9011646,4.05830904 13.1799156,4.05830904 C5.6259173,4.05830904 0.0906599156,10.2950437 0.0906599156,18.0338192 C0.0906599156,25.7399417 5.95152068,31.9766764 13.1799156,31.9766764 C18.4546903,31.9766764 24.120189,29.0705539 25.5854042,22.2460641 L25.5854042,16.4011662 Z M30.7299374,31.4868805 L36.4931172,31.4868805 L36.4931172,22.6705539 C36.4931172,22.2460641 36.9164016,19.2746356 39.9119526,19.2746356 C41.8330125,19.2746356 42.9075037,20.1889213 42.9075037,20.1889213 L45.3169687,15.2909621 C45.3169687,15.2909621 43.8191931,14.2460641 41.6702109,14.2460641 C38.3816168,14.2460641 36.5582379,17.1521866 36.5582379,17.1521866 L36.4931172,17.1521866 L36.4931172,14.7358601 L30.7299374,14.7358601 L30.7299374,31.4868805 Z M47.9869162,23.1276968 C47.9869162,17.903207 52.4151221,14.2460641 58.0480605,14.2460641 C63.5833179,14.2460641 68.0115238,17.903207 68.0115238,23.1276968 C68.0115238,28.2868805 63.8112403,31.9766764 58.0480605,31.9766764 C52.0243981,31.9766764 47.9869162,28.2868805 47.9869162,23.1276968 Z M54.1082597,23.1276968 C54.1082597,25.4134111 55.6711559,27.0460641 58.0155002,27.0460641 C60.2621635,27.0460641 61.8901804,25.4134111 61.8901804,23.1276968 C61.8901804,20.8093294 60.1644825,19.1766764 58.0155002,19.1766764 C55.8339576,19.1766764 54.1082597,20.8093294 54.1082597,23.1276968 Z M83.4125634,31.4868805 L87.2546832,22.8338192 L91.096803,31.4868805 L95.0040435,31.4868805 L103.958136,14.7358601 L97.3158275,14.7358601 L93.2457853,23.780758 L89.2408638,14.7358601 L85.2685026,14.7358601 L81.2635811,23.780758 L77.1935389,14.7358601 L70.55123,14.7358601 L79.5053229,31.4868805 L83.4125634,31.4868805 Z" id="Grow" fill="#2364AA"></path>
                    <g id="Group-3" transform="translate(35.828943, 0.000000)">
                        <g id="Group-5">
                            <path d="M4.22850604,11.1096963 C4.22850604,11.1096963 2.83430162,3.95932396 11.1881125,1.49262269 L16.8158045,0.269034718 L15.6916062,6.22281708 C15.6916062,6.22281708 14.1090427,13.0533113 6.31609017,12.7351206 C4.86823888,12.676004 5.68039381,12.4751214 5.04125426,12.3624517 C4.40211471,12.249782 4.22850604,11.1096963 4.22850604,11.1096963 Z" id="Path-8" stroke="#2364AA"></path>
                            <path d="M0.270583019,15.330672 L11.6453466,4.52597009 C11.6453466,4.52597009 12.8655077,3.69638317 12.8655077,5.0802282 L0.485599383,17.5357736" id="Path-5" stroke="#2364AA"></path>
                            <path d="M3.20188503,12.5432558 L3.49821783,12.2647945 L11.6453466,4.52597009 C11.6453466,4.52597009 12.8655077,3.69638317 12.8655077,5.0802282 L4.27815715,13.7200446" id="Path-5" stroke="#2364AA" fill="#F7F9F9"></path>
                            <path d="M4.37513702,11.7678617 C4.37513702,11.7678617 2.89349121,4.16903397 11.7712344,1.54762669 L17.7518827,0.247298015 L16.5571772,6.57448833 C16.5571772,6.57448833 14.8753589,13.8333759 6.59364977,13.495229 C5.05499247,13.4324047 5.91808396,13.2189233 5.23885899,13.0991872 C4.55963403,12.9794511 4.37513702,11.7678617 4.37513702,11.7678617 Z" id="Path-8" fill="#8FD094" opacity="0.546082428"></path>
                        </g>
                    </g>
                </g>
            </g>
        </g>
    </g>
</svg>