<?xml version="1.0" encoding="UTF-8"?>
<svg width="289px" height="98px" viewBox="0 0 289 98" version="1.1" xmlns="http://www.w3.org/2000/svg" xmlns:xlink="http://www.w3.org/1999/xlink">
    <!-- Generator: Sketch 42 (36781) - http://www.bohemiancoding.com/sketch -->
    <title>Group 4</title>
    <desc>Created with Sketch.</desc>
    <defs>
        <rect id="path-1" x="0" y="0" width="289" height="98" rx="6"></rect>
        <mask id="mask-2" maskContentUnits="userSpaceOnUse" maskUnits="objectBoundingBox" x="0" y="0" width="289" height="98" fill="white">
            <use xlink:href="#path-1"></use>
        </mask>
        <mask id="mask-4" maskContentUnits="userSpaceOnUse" maskUnits="objectBoundingBox" x="0" y="0" width="289" height="98" fill="white">
            <use xlink:href="#path-1"></use>
        </mask>
    </defs>
    <g id="icons" stroke="none" stroke-width="1" fill="none" fill-rule="evenodd">
        <g id="Group-4">
            <g id="Group">
                <mask id="mask-3" fill="white">
                    <use xlink:href="#path-1"></use>
                </mask>
                <g id="Mask" stroke="#2364AA" mask="url(#mask-2)" stroke-width="2" fill="#F7F9F9">
                    <use mask="url(#mask-4)" xlink:href="#path-1"></use>
                </g>
                <g mask="url(#mask-3)">
                    <g transform="translate(-7.000000, 54.000000)">
                        <path d="M113.089805,37.0356936 C113.089805,37.0356936 111.164332,21.907853 127.58291,23.9920705 C127.58291,23.9920705 127.937429,10.2163032 145.521045,11.117947 C145.521045,11.117947 157.118692,-11.0182318 180.970309,7.17943515 C180.970309,7.17943515 201.894837,-2.27095306 212.909967,14.5809183 C212.909967,14.5809183 220.856991,9.54144366 235.611044,19.9460519 C250.365097,30.3506602 254.586377,13.1880395 254.586377,13.1880395 C254.586377,13.1880395 275.027231,2.74184109 281.819762,18.0093619 C281.819762,18.0093619 325.152791,34.6603448 291.001673,42.9297288 L114.907209,43.7348519 L113.089805,37.0356936 Z" id="Path-3" stroke="#2364AA" stroke-width="1" fill="none"></path>
                        <path d="M12.7810041,43.7348519 C12.7810041,43.7348519 -15.393402,35.5060517 11.9200597,22.724934 C11.9200597,22.724934 17.7321747,3.27507161 46.1508426,17.0060979 C46.1508426,17.0060979 73.0176603,7.63810514 77.631938,25.9336998 C77.631938,25.9336998 86.9622992,23.8241598 95.1683945,32.2125582 C103.37449,40.6009567 110.760636,26.0350004 110.760636,26.0350004 C110.760636,26.0350004 117.555758,18.0717089 129.943594,21.4533709 C142.331431,24.8350329 140.592229,30.4471178 140.592229,30.4471178 C140.592229,30.4471178 153.540555,12.1905348 174.887257,31.5437224 C174.887257,31.5437224 193.750213,33.3621428 190.77985,43.6222373 L12.7810041,43.7348519 Z" id="Path-2" stroke="none" fill="#2364AA" fill-rule="evenodd"></path>
                    </g>
                </g>
            </g>
        </g>
    </g>
</svg>