<?xml version="1.0" encoding="UTF-8"?>
<svg width="81px" height="92px" viewBox="0 0 81 92" version="1.1" xmlns="http://www.w3.org/2000/svg" xmlns:xlink="http://www.w3.org/1999/xlink">
    <!-- Generator: Sketch 42 (36781) - http://www.bohemiancoding.com/sketch -->
    <title>cactus_1</title>
    <desc>Created with Sketch.</desc>
    <defs></defs>
    <g id="cactus_animation" stroke="none" stroke-width="1" fill="none" fill-rule="evenodd">
        <g id="cactus_1" transform="translate(-121.000000, -179.000000)">
            <g transform="translate(122.000000, 180.000000)">
                <g id="cactus" transform="translate(26.000000, 0.000000)">
                    <path d="M0.204808834,11.9166648 C0.204808834,5.33527258 5.53868668,0 12.1293918,0 L18.0190982,0 C24.6048635,0 29.9436812,5.33695169 29.9436812,11.9236493 L29.9436812,23.8472985 L0.204808834,23.7984686 L0.204808834,11.9166648 Z" id="Combined-Shape" stroke="#2364AA"></path>
                    <path d="M2.24412444,11.9347393 C2.24412444,5.34336479 7.57859786,0 14.1816268,0 L20.731776,0 C27.3246766,0 32.6692785,5.34129512 32.6692785,11.9351103 L32.6692785,23.8004927 L2.24412444,23.8694786 L2.24412444,11.9347393 Z" id="Combined-Shape" fill="#8FD094" opacity="0.55"></path>
                    <path d="M5.33385004,10.2653678 C5.33385004,4.59596172 9.93222303,0 15.6073901,0 L15.6073901,0 C21.2813095,0 25.8809301,4.59799902 25.8809301,10.2691128 L25.8809301,23.8472985 L5.33385004,23.7984686 L5.33385004,10.2653678 Z" id="Combined-Shape" stroke="#8FD094" opacity="0.693953804"></path>
                    <path d="M16.010274,0 L16.010274,23.7549764" id="Path-20" stroke="#8FD094" opacity="0.69"></path>
                </g>
            </g>
        </g>
    </g>
</svg>
