<?xml version="1.0" encoding="UTF-8"?>
<svg width="97px" height="183px" viewBox="0 0 97 183" version="1.1" xmlns="http://www.w3.org/2000/svg" xmlns:xlink="http://www.w3.org/1999/xlink">
    <!-- Generator: Sketch 42 (36781) - http://www.bohemiancoding.com/sketch -->
    <title>cactus_4</title>
    <desc>Created with Sketch.</desc>
    <defs></defs>
    <g id="cactus_animation" stroke="none" stroke-width="1" fill="none" fill-rule="evenodd">
        <g id="cactus_4" transform="translate(-115.000000, -88.000000)">
            <g transform="translate(116.000000, 89.000000)">
                <g id="vase" transform="translate(6.311556, 114.904421)">
                    <path d="M0.0477335356,0.995480061 C0.0477335356,0.445691605 0.498656369,0 1.04664867,0 L75.8327189,0 C76.3844045,0 76.8316341,0.450006349 76.8316341,0.995480061 L76.8316341,53.0286582 C76.8316341,59.6581348 71.4628575,65.0323874 64.8341496,65.0323874 L12.045218,65.0323874 C5.41919029,65.0323874 0.0477335356,59.6551864 0.0477335356,53.0286582 L0.0477335356,0.995480061 Z" id="Path-19" stroke="#2364AA"></path>
                    <path d="M2.67387084,3.32685543 C2.67387084,2.22247158 3.56274377,1.32719158 4.66858472,1.32719158 L77.4630575,1.32719158 C78.5647076,1.32719158 79.4577714,2.2217612 79.4577714,3.32685543 L79.4577714,54.3558498 C79.4577714,60.9853263 74.0889948,66.3595789 67.4602869,66.3595789 L14.6713553,66.3595789 C8.0453276,66.3595789 2.67387084,60.982378 2.67387084,54.3558498 L2.67387084,3.32685543 Z" id="Path-19" fill="#2364AA" opacity="0.439999998"></path>
                </g>
                <g id="cactus">
                    <path d="M23.4812743,80.3736057 L23.4812743,115.025932 L71.3864119,115.261943 L71.3864119,58.4784323 C78.4953029,58.4532587 87.7095779,49.9563367 88.7636525,48.8401708 C89.4594012,48.1034383 88.7636525,48.8401708 88.7636525,48.8401708 C89.6378385,47.5557611 91.3778782,40.8357777 91.3778782,36.4160075 L91.3778782,25.7716765 C91.3778782,25.7716765 90.5064696,19.8123154 83.9709053,20.0045529 C77.435341,20.1967903 76.9996367,25.7716765 76.9996367,25.7716765 C76.9996367,25.7716765 76.9996367,36.3447364 76.9996367,40.9584352 C76.9996367,44.6138125 73.0338829,45.4937503 71.3864119,45.701589 L71.3864119,23.9523299 C71.3864119,10.7142477 60.6624815,0 47.4338431,0 C34.202296,0 23.4812743,10.7253356 23.4812743,23.9557076 L23.4812743,66.0251136 C22.0260004,65.9018955 16.5583411,65.1388895 16.5583411,60.6294467 C16.5583411,55.427763 16.5583411,43.5072378 16.5583411,43.5072378 C16.5583411,43.5072378 16.0566048,37.2218699 8.5305598,37.0051331 C1.00451482,36.7883963 0.00104215162,43.5072378 0.00104215162,43.5072378 L0.00104215162,56.5226627 C0.00104215162,60.9453848 1.7542417,67.6530097 3.01146015,69.5156564 C3.01146015,69.5156564 2.21026904,68.6850323 3.01146015,69.5156564 C4.24809988,70.7977259 15.238247,80.7169727 23.4812743,80.3736057 Z" id="Combined-Shape" stroke="#2364AA"></path>
                    <path d="M26.7663247,82.2273713 L26.7663247,115.369146 L75.7769654,115.035715 L75.7769654,59.8277921 C82.7618257,59.7807663 91.7974054,51.4484376 92.8322688,50.3526146 C93.5162555,49.6283369 92.8322688,50.3526146 92.8322688,50.3526146 C93.6652968,49.1337544 95.4022998,42.4239121 95.4022998,38.0053061 L95.4022998,27.6741036 C95.4022998,27.6741036 94.5456228,21.8154883 88.1205452,22.0044759 C81.6954676,22.1934635 81.2671291,27.6741036 81.2671291,27.6741036 C81.2671291,27.6741036 81.2671291,38.0684211 81.2671291,42.6041233 C81.2671291,46.1770389 77.4131304,47.052727 75.7769654,47.2635009 L75.7769654,24.5017155 C75.7769654,10.9779984 64.8055598,0 51.2716451,0 C37.7347546,0 26.7663247,10.9699699 26.7663247,24.5021137 L26.7663247,66.9365117 C25.2383352,66.8091869 19.3727431,66.0063902 19.3727431,61.1844932 C19.3727431,55.6404883 19.3727431,42.935477 19.3727431,42.935477 C19.3727431,42.935477 18.8379877,36.2364711 10.816656,36.0054709 C2.79532435,35.7744707 1.72581346,42.935477 1.72581346,42.935477 L1.72581346,57.3479458 C1.72581346,61.7632144 3.47649135,68.4715176 4.93434612,70.6555016 C4.93434612,70.6555016 4.08042888,69.7702144 4.93434612,70.6555016 C6.2531216,72.0227243 17.9791591,82.6060538 26.7663247,82.2273713 Z" id="Combined-Shape" fill="#8FD094" opacity="0.55"></path>
                    <path d="M31.7434377,16.5416194 C31.7434377,7.40593525 39.1507694,0 48.2926647,0 L48.2926647,0 C57.4325504,0 64.8418916,7.40753852 64.8418916,16.5448821 L64.8418916,115.261943 L31.7434377,115.025932 L31.7434377,16.5416194 Z" id="Combined-Shape" stroke="#8FD094" opacity="0.693953804"></path>
                    <path d="M48.941654,0 L48.941654,114.815719" id="Path-20" stroke="#8FD094" opacity="0.69"></path>
                </g>
            </g>
        </g>
    </g>
</svg>