<?xml version="1.0" encoding="UTF-8"?>
<svg width="128px" height="217px" viewBox="0 0 128 217" version="1.1" xmlns="http://www.w3.org/2000/svg" xmlns:xlink="http://www.w3.org/1999/xlink">
    <!-- Generator: Sketch 42 (36781) - http://www.bohemiancoding.com/sketch -->
    <title>cactus_5</title>
    <desc>Created with Sketch.</desc>
    <defs></defs>
    <g id="cactus_animation" stroke="none" stroke-width="1" fill="none" fill-rule="evenodd">
        <g id="cactus_5" transform="translate(-96.000000, -54.000000)">
            <g transform="translate(97.000000, 55.000000)">
                <g id="vase" transform="translate(25.311556, 148.904421)">
                    <path d="M0.0477335356,0.995480061 C0.0477335356,0.445691605 0.498656369,0 1.04664867,0 L75.8327189,0 C76.3844045,0 76.8316341,0.450006349 76.8316341,0.995480061 L76.8316341,53.0286582 C76.8316341,59.6581348 71.4628575,65.0323874 64.8341496,65.0323874 L12.045218,65.0323874 C5.41919029,65.0323874 0.0477335356,59.6551864 0.0477335356,53.0286582 L0.0477335356,0.995480061 Z" id="Path-19" stroke="#2364AA"></path>
                    <path d="M2.67387084,3.32685543 C2.67387084,2.22247158 3.56274377,1.32719158 4.66858472,1.32719158 L77.4630575,1.32719158 C78.5647076,1.32719158 79.4577714,2.2217612 79.4577714,3.32685543 L79.4577714,54.3558498 C79.4577714,60.9853263 74.0889948,66.3595789 67.4602869,66.3595789 L14.6713553,66.3595789 C8.0453276,66.3595789 2.67387084,60.982378 2.67387084,54.3558498 L2.67387084,3.32685543 Z" id="Path-19" fill="#2364AA" opacity="0.439999998"></path>
                </g>
                <g id="cactus">
                    <path d="M37.3723797,103.918215 L37.3723797,148.740429 L91.4430567,149.045616 L91.4430567,75.6171796 C101.852583,75.7907737 115.496609,61.3781991 117.047113,59.4972207 C118.062901,58.2649264 117.243133,59.2320509 117.243133,59.2320509 C119.33641,55.3373356 120.863866,48.5236749 120.863866,44.1099926 L120.863866,20.9117456 C120.863866,20.9117456 119.591615,10.9438312 110.049731,11.2653768 C100.507847,11.5869224 99.8717211,20.9117456 99.8717211,20.9117456 C99.8717211,20.9117456 99.8717211,38.596755 99.8717211,46.31385 C99.8717211,52.6360313 93.6810592,53.9946142 91.4430567,54.2791954 L91.4430567,27.0342299 C91.4430567,12.1022882 79.3389234,0 64.4077182,0 C49.4732301,0 37.3723797,12.107822 37.3723797,27.0435773 L37.3723797,77.8897473 C35.3435934,77.716303 26.2401815,76.4704763 26.2401815,68.0784567 C26.2401815,58.6340465 26.2401815,36.9906065 26.2401815,36.9906065 C26.2401815,36.9906065 25.4450245,25.5786109 13.5176693,25.1850938 C1.59031403,24.7915767 0,36.9906065 0,36.9906065 L0,67.1598388 C0,71.5791803 1.54770974,78.3911968 3.57249618,82.3115113 C3.57249618,82.3115113 3.501206,82.7045391 4.77094209,84.2126574 C6.73882706,86.5499962 24.2913423,104.698398 37.3723797,103.918215 Z" id="Combined-Shape" stroke="#2364AA"></path>
                    <path d="M41.0802262,106.316327 L41.0802262,149.184241 L96.3986881,148.753079 L96.3986881,77.3621915 C107.048434,77.5397916 121.007322,62.7946191 122.593607,60.8702335 C123.632837,59.6095017 122.89902,60.4406344 122.89902,60.4406344 C124.970372,56.5433235 126.498439,49.7265915 126.498439,45.3136129 L126.498439,21.3943243 C126.498439,21.3943243 125.196829,11.1963811 115.434747,11.525347 C105.672666,11.854313 105.02186,21.3943243 105.02186,21.3943243 C105.02186,21.3943243 105.02186,39.4874493 105.02186,47.3826312 C105.02186,53.850709 98.6883369,55.2406437 96.3986881,55.5317922 L96.3986881,27.6524412 C96.3986881,12.3790203 84.0152286,0 68.7394572,0 C53.460327,0 41.0802262,12.3870224 41.0802262,27.6671888 L41.0802262,79.687203 C39.0046218,79.5097562 29.6911312,78.2351796 29.6911312,69.649498 C29.6911312,59.9871399 29.6911312,37.8442359 29.6911312,37.8442359 C29.6911312,37.8442359 28.8776244,26.1688865 16.6750225,25.7662883 C4.4724206,25.36369 2.84540702,37.8442359 2.84540702,37.8442359 L2.84540702,68.8992698 C2.84540702,73.3158892 4.39347221,80.1282699 6.41575363,84.0582692 C6.41575363,84.0582692 6.42741009,84.6131054 7.72644777,86.1560264 C9.73974548,88.5473038 27.6973188,107.114515 41.0802262,106.316327 Z" id="Combined-Shape" fill="#8FD094" opacity="0.55"></path>
                    <path d="M46.6979092,18.6874703 C46.6979092,8.36666546 55.0585873,0 65.3770728,0 L65.3770728,0 C75.69329,0 84.0562365,8.35957137 84.0562365,18.6881583 L84.0562365,149.045616 L46.6979092,148.740429 L46.6979092,18.6874703 Z" id="Combined-Shape" stroke="#8FD094" opacity="0.693953804"></path>
                    <path d="M66.109589,0 L66.109589,148.468603" id="Path-20" stroke="#8FD094" opacity="0.69"></path>
                </g>
            </g>
        </g>
    </g>
</svg>