<?xml version="1.0" encoding="UTF-8"?>
<svg width="17px" height="35px" viewBox="0 0 17 35" version="1.1" xmlns="http://www.w3.org/2000/svg" xmlns:xlink="http://www.w3.org/1999/xlink">
    <!-- Generator: Sketch 42 (36781) - http://www.bohemiancoding.com/sketch -->
    <title>pepper</title>
    <desc>Created with Sketch.</desc>
    <defs></defs>
    <g id="icons" stroke="none" stroke-width="1" fill="none" fill-rule="evenodd">
        <g id="32-copy" transform="translate(-11.000000, -3.000000)">
            <g id="pepper" transform="translate(10.000000, 3.000000)">
                <g id="Group-6" transform="translate(9.836462, 21.467217) rotate(-13.000000) translate(-9.836462, -21.467217) translate(3.336462, 6.967217)">
                    <g id="Group-5" transform="translate(-0.000000, 0.755840)" stroke="#2364AA" fill="#F7F9F9">
                        <g id="Group" transform="translate(0.000000, 0.085947)">
                            <path d="M0.0175213694,5.47540135 C0.0175213694,5.47540135 0.879922788,11.2550593 1.54706466,16.7702988 C2.21420653,22.2855382 2.05600485,25.4147207 4.42141589,26.1002524 C9.76666135,27.6493849 11.0711826,22.3824515 11.0711826,22.3824515 C11.0711826,22.3824515 7.02519577,25.5559708 6.70171552,21.1881229 L8.39334603,5.34652074 C8.39334603,5.34652074 8.94189317,0.0616584919 4.47970727,0.0616584919 C0.0175213694,0.0616584919 0.0175213694,5.47540135 0.0175213694,5.47540135 Z" id="Path-3"></path>
                        </g>
                    </g>
                    <path d="M0.0175213694,5.69722239 C0.0175213694,5.69722239 0.97587888,11.6482425 1.71725106,17.3270043 C2.45862324,23.0057661 2.28281907,26.2277263 4.91142031,26.9335834 C10.8514107,28.5286465 12.301081,23.1055528 12.301081,23.1055528 C12.301081,23.1055528 7.80491276,26.3731644 7.44544011,21.8758134 L9.32529185,5.56452057 C9.32529185,5.56452057 9.93487372,0.12296647 4.97619755,0.12296647 C0.0175213694,0.12296647 0.0175213694,5.69722239 0.0175213694,5.69722239 Z" id="Path-3" fill="#FF0000" opacity="0.649966033"></path>
                </g>
                <g id="Group-4" transform="translate(6.305624, 5.949681) rotate(-4.000000) translate(-6.305624, -5.949681) translate(1.305624, 0.449681)">
                    <path d="M4.55353863,5.84854151 C4.79943533,6.16595887 5.23908595,6.6069627 6.02448721,7.18159571 C7.87745251,8.53730402 8.47215297,7.40880142 8.47215297,7.40880142 C8.47215297,7.40880142 7.96721039,8.07393347 7.30795558,8.07948817 C6.64870078,8.08504287 6.49582508,8.63155492 6.49582508,8.63155492 C6.49582508,8.63155492 5.44802563,8.45864207 4.49982178,8.49967525 C3.55161792,8.54070844 2.96603691,9.74348292 2.96603691,9.74348292 C2.96603691,9.74348292 2.77596518,9.38986273 1.60193009,9.38323289 C0.427895004,9.37660305 0.113024158,10.3953553 0.113024158,10.3953553 C0.113024158,10.3953553 0.328299419,9.16265702 1.24842669,8.29576348 C1.81654198,7.76051636 2.19481748,6.81746531 2.40110157,6.17423968 C2.28243149,5.80200242 1.59701868,3.40333504 3.15239888,2.01856201 C4.84195132,0.514333884 7.19120762,0.175098297 8.00102034,0.803572731 C8.81083307,1.43204717 8.21919902,3.01999201 7.60858941,3.14160796 C6.99797979,3.26322391 4.33178371,2.98131508 4.17392312,4.02311657 C4.08393404,4.61699973 4.32748035,5.33818314 4.55353863,5.84854151 Z" id="Combined-Shape" stroke="#2364AA" fill="#F7F9F9"></path>
                    <path d="M4.890741,5.70995318 C5.15338818,6.04899302 5.62298781,6.52003804 6.46189062,7.13381505 C8.44107994,8.58187423 9.0762914,7.37649802 9.0762914,7.37649802 C9.0762914,7.37649802 8.53695212,8.08693887 7.83278887,8.09287196 C7.12862562,8.09880504 6.96533602,8.68254551 6.96533602,8.68254551 C6.96533602,8.68254551 5.84616047,8.49785383 4.83336496,8.54168219 C3.82056944,8.58551056 3.19509864,9.87021805 3.19509864,9.87021805 C3.19509864,9.87021805 2.99207922,9.49250926 1.73806885,9.48542779 C0.484058477,9.47834632 0.147738625,10.566496 0.147738625,10.566496 C0.147738625,10.566496 0.37767844,9.24982628 1.36048479,8.32387995 C1.9673001,7.75217178 2.37134374,6.74488009 2.5916799,6.05783792 C2.46492601,5.66024385 1.73282287,3.09817922 3.3941556,1.61907543 C5.19880037,0.0123792661 7.70808803,-0.349965054 8.57306521,0.321321067 C9.43804239,0.992607189 8.80610623,2.68872286 8.15390188,2.81862329 C7.50169753,2.94852371 4.65388013,2.64741126 4.48526607,3.76018027 C4.38914694,4.39451876 4.64928362,5.1648292 4.890741,5.70995318 Z" id="Combined-Shape" fill="#4B905E" opacity="0.689999998"></path>
                </g>
            </g>
        </g>
    </g>
</svg>
