<?xml version="1.0" encoding="UTF-8"?>
<svg width="21px" height="36px" viewBox="0 0 21 36" version="1.1" xmlns="http://www.w3.org/2000/svg" xmlns:xlink="http://www.w3.org/1999/xlink">
    <!-- Generator: Sketch 42 (36781) - http://www.bohemiancoding.com/sketch -->
    <title>cactus2</title>
    <desc>Created with Sketch.</desc>
    <defs></defs>
    <g id="icons" stroke="none" stroke-width="1" fill="none" fill-rule="evenodd">
        <g id="32-copy" transform="translate(-9.000000, -1.000000)">
            <g id="cactus2" transform="translate(10.000000, 2.000000)">
                <g id="Group-2">
                    <path d="M5.88541413,16.7428842 L5.88541413,23.9644588 L14.4004814,24.0136292 L14.4004814,12.1831354 C16.0397768,12.2111042 18.1884423,9.8890082 18.4326162,9.58595253 C18.5925829,9.38741025 18.4326162,9.58595253 18.4326162,9.58595253 C18.5703919,9.36032143 19.0336797,7.32878109 19.0336797,6.01425948 L19.0336797,3.36921621 C19.0336797,3.36921621 18.8333252,1.763226 17.3306663,1.81503213 C15.8280074,1.86683827 15.7278301,3.36921621 15.7278301,3.36921621 C15.7278301,3.36921621 15.7278301,6.21855369 15.7278301,7.46190095 C15.7278301,8.48050534 14.7529227,8.69939474 14.4004814,8.74524532 L14.4004814,4.26548482 C14.4004814,1.90438133 12.4943186,0 10.1429477,0 C7.79636142,0 5.88541413,1.90581224 5.88541413,4.25675078 L5.88541413,12.5492823 C5.56592022,12.5213377 4.13231205,12.3206151 4.13231205,10.9685267 C4.13231205,9.44688139 4.13231205,5.95977752 4.13231205,5.95977752 C4.13231205,5.95977752 4.00709047,4.12112275 2.12876681,4.05772086 C0.250443154,3.99431898 0,5.95977752 0,5.95977752 L0,9.14285449 C0,10.7814315 0.586358499,13.3049898 0.751329463,13.5680041 C0.751329463,13.5680041 0.551371024,13.3250222 0.751329463,13.5680041 C1.06123261,13.9445867 3.82540824,16.8685841 5.88541413,16.7428842 Z" id="Combined-Shape" stroke="#2364AA"></path>
                    <path d="M6.46932697,17.1292584 L6.46932697,24.035964 L15.1808958,23.9664969 L15.1808958,12.4642847 C16.8580211,12.4928989 19.0562712,10.1172161 19.3060798,9.80716682 C19.4697381,9.60404279 19.3060798,9.80716682 19.3060798,9.80716682 C19.447035,9.57632885 19.9210141,7.49790681 19.9210141,6.15305008 L19.9210141,3.44696736 C19.9210141,3.44696736 19.716036,1.80391583 18.1787003,1.85691749 C16.6413647,1.90991915 16.5388756,3.44696736 16.5388756,3.44696736 C16.5388756,3.44696736 16.5388756,6.36205878 16.5388756,7.63409867 C16.5388756,8.67620931 15.5414704,8.90015 15.1808958,8.94705867 L15.1808958,4.35404665 C15.1808958,1.94097792 13.2307447,0 10.8251114,0 C8.42437305,0 6.46932697,1.94878438 6.46932697,4.35273175 L6.46932697,12.8388811 C6.14246013,12.8102916 4.67576869,12.604937 4.67576869,11.2216466 C4.67576869,9.66488634 4.67576869,6.09731085 4.67576869,6.09731085 C4.67576869,6.09731085 4.54765738,4.21622559 2.62598779,4.15136058 C0.704318205,4.08649557 0.448095594,6.09731085 0.448095594,6.09731085 L0.448095594,9.35384344 C0.448095594,11.0302338 1.04798544,13.6120281 1.21676343,13.8811119 C1.21676343,13.8811119 1.01219056,13.6325227 1.21676343,13.8811119 C1.53381819,14.2663849 4.36178248,17.2578591 6.46932697,17.1292584 Z" id="Combined-Shape" fill="#8FD094" opacity="0.55"></path>
                    <path d="M7.35400144,2.93851304 C7.35400144,1.3156171 8.67430662,0 10.295602,0 L10.295602,0 C11.9202032,0 13.2372026,1.32528242 13.2372026,2.9445423 L13.2372026,24.0136292 L7.35400144,23.9644588 L7.35400144,2.93851304 Z" id="Combined-Shape" stroke="#8FD094" opacity="0.693953804"></path>
                    <path d="M10.4109589,0 L10.4109589,23.9206632" id="Path-20" stroke="#8FD094" opacity="0.69"></path>
                </g>
                <g id="vase" transform="translate(3.828591, 23.990881)">
                    <path d="M0.164997407,1.00465132 C0.164997407,0.449797717 0.609697086,0 1.16482016,0 L11.2571275,0 C11.8093144,0 12.2569502,0.450216091 12.2569502,1.00465132 L12.2569502,5.23887814 C12.2569502,8.13223065 9.91116252,10.4777563 7.02357132,10.4777563 L5.39837634,10.4777563 C2.50806096,10.4777563 0.164997407,8.12634326 0.164997407,5.23887814 L0.164997407,1.00465132 Z" id="Path-19" stroke="#2364AA"></path>
                    <path d="M0.578562337,2.20928014 C0.578562337,1.10722443 1.4677125,0.213831761 2.57530242,0.213831761 L10.6737751,0.213831761 C11.7765442,0.213831761 12.6705152,1.10715937 12.6705152,2.20928014 L12.6705152,5.45270991 C12.6705152,8.34606241 10.3247275,10.6915881 7.43713625,10.6915881 L5.81194127,10.6915881 C2.92162589,10.6915881 0.578562337,8.34017502 0.578562337,5.45270991 L0.578562337,2.20928014 Z" id="Path-19" fill="#2364AA" opacity="0.439999998"></path>
                </g>
            </g>
        </g>
    </g>
</svg>