<?xml version="1.0" encoding="UTF-8"?>
<svg width="36px" height="35px" viewBox="0 0 36 35" version="1.1" xmlns="http://www.w3.org/2000/svg" xmlns:xlink="http://www.w3.org/1999/xlink">
    <!-- Generator: Sketch 42 (36781) - http://www.bohemiancoding.com/sketch -->
    <title>Group</title>
    <desc>Created with Sketch.</desc>
    <defs></defs>
    <g id="icons" stroke="none" stroke-width="1" fill="none" fill-rule="evenodd">
        <g id="32-copy" transform="translate(-1.000000, -2.000000)">
            <g id="Group" transform="translate(2.000000, 2.000000)">
                <path d="M13.2706612,22.8908591 C15.5983241,20.2461168 17.5414245,18.5608686 17.5414245,18.5608686 C17.5414245,18.5608686 19.3236242,19.7790381 21.7148581,21.8133617 C19.9628544,18.8393705 18.9865821,16.5321491 18.9865821,16.5321491 C18.9865821,16.5321491 20.6078462,15.2815056 23.1622916,13.6961475 C19.8515911,14.4226431 17.412975,14.6332092 17.412975,14.6332092 C17.412975,14.6332092 16.6633827,12.5335151 15.9123336,9.3992229 C15.5850976,12.9466637 14.9952747,15.4883193 14.9952747,15.4883193 C14.9952747,15.4883193 12.9483034,15.5471626 9.94958637,15.3282352 C13.0126243,16.6735662 15.0746609,17.9157463 15.0746609,17.9157463 C15.0746609,17.9157463 14.4667219,19.987566 13.2706612,22.8908591 Z M11.7212575,25.4379433 C9.90311955,27.2687524 6.99441456,27.8834147 4.36600627,26.7677216 C0.967151868,25.3249935 -0.675922831,21.5351552 0.696096215,18.3028809 C1.7034997,15.929587 4.05630131,14.5167706 6.58110828,14.5045692 C4.40652339,13.2908809 3.02668554,10.7904553 3.26738969,8.03919432 C3.58920187,4.36086419 6.68581424,1.62708286 10.183867,1.93312282 C12.8471531,2.16613016 14.9752846,4.0940603 15.6972913,6.62434234 C16.0744387,4.05433194 18.0738123,1.82375679 20.8733981,1.1774215 C24.4711433,0.346816559 28.0280297,2.44708504 28.8179262,5.86850245 C29.3966829,8.37537309 28.3294043,10.8959483 26.3023161,12.391053 C28.7959599,12.06332 31.4173376,13.2755863 32.8531262,15.6651399 C34.7548429,18.830128 33.8565072,22.8619466 30.8466373,24.6704589 C28.5856476,26.0289985 25.7763056,25.7464989 23.7121813,24.1802164 C24.8286069,26.459631 24.4957022,29.3587246 22.650997,31.4808151 C20.2285773,34.2674903 16.1164889,34.6590227 13.4663906,32.3553274 C11.4809119,30.6293771 10.8793707,27.8802255 11.7212575,25.4379433 Z" id="Oval" stroke="#2364AA" fill="#F7F9F9"></path>
                <path d="M13.6672348,23.5551046 C16.0655271,20.8301116 18.0675881,19.093727 18.0675881,19.093727 C18.0675881,19.093727 19.903866,20.3488601 22.3676583,22.4449123 C20.5624927,19.3806796 19.5565969,17.003449 19.5565969,17.003449 C19.5565969,17.003449 21.2270557,15.7148567 23.859012,14.0813933 C20.4478532,14.8299332 17.935241,15.0468887 17.935241,15.0468887 C17.935241,15.0468887 17.1629034,12.8834825 16.3890648,9.65408483 C16.0518993,13.3091675 15.4441792,15.9279458 15.4441792,15.9279458 C15.4441792,15.9279458 13.3350955,15.9885747 10.2453869,15.7630042 C13.4013681,17.1491573 15.5259742,18.4290295 15.5259742,18.4290295 C15.5259742,18.4290295 14.8995882,20.5637154 13.6672348,23.5551046 Z M12.0708168,26.1794764 C10.1975101,28.0658387 7.20054481,28.6991519 4.49238137,27.5496048 C0.990393785,26.0630992 -0.702537572,22.1582639 0.711113352,18.8279111 C1.749085,16.3826031 4.17327887,14.9269169 6.77469735,14.9143453 C4.53412793,13.6638294 3.11242094,11.0875322 3.3604289,8.2527882 C3.692006,4.46284462 6.88258047,1.64611076 10.4867764,1.96143705 C13.230876,2.20151465 15.4235825,4.18794496 16.1674974,6.79500465 C16.5560887,4.1470111 18.6161304,1.84875247 21.5006654,1.18280509 C25.2075789,0.326996678 28.8723937,2.49099469 29.6862584,6.01622992 C30.2825766,8.59916782 29.1829131,11.1962261 27.0943159,12.7366975 C29.6636256,12.39902 32.3645451,13.6480707 33.8439006,16.1101318 C35.8033221,19.3711567 34.8777277,23.5253149 31.7765278,25.3887038 C29.4469318,26.7884663 26.5523444,26.4973946 24.4255873,24.8835856 C25.5758892,27.2321656 25.232883,30.219228 23.332203,32.4057101 C20.8362785,35.2769428 16.599415,35.6803557 13.8689033,33.3067582 C11.8231782,31.5284365 11.2033841,28.695866 12.0708168,26.1794764 Z" id="Oval" fill="#907AD6" opacity="0.559839221"></path>
                <path d="M16.613141,14.0201565 C16.5635961,13.8778743 16.4885634,13.7432021 16.3872287,13.6224361 C15.9035658,13.046029 15.0038743,13.00469 14.3777117,13.5301028 C13.7515491,14.0555157 13.6360303,14.9487172 14.1196933,15.5251243 C14.2308475,15.6575928 14.3639748,15.761801 14.5107051,15.8373645 M19.0112751,15.5113358 C19.1312833,15.4202481 19.2361778,15.3072718 19.3197189,15.1735781 C19.7184546,14.5354677 19.4797504,13.6670358 18.7865582,13.2338813 C18.093366,12.8007267 17.2081836,12.9668763 16.8094479,13.6049867 C16.7178115,13.7516357 16.6598421,13.9104493 16.6333192,14.0733486 M18.3365317,18.2172767 C18.4602458,18.3032637 18.6001069,18.3681127 18.7530728,18.4062514 C19.483168,18.5882846 20.2353321,18.0929032 20.4330784,17.2997861 C20.6308247,16.506669 20.1992706,15.7161536 19.4691755,15.5341204 C19.3013868,15.492286 19.1324325,15.48623 18.9693101,15.5113438 M15.5213833,18.3984609 C15.4778346,18.5426914 15.459379,18.6957466 15.470376,18.8530114 C15.522864,19.6036245 16.2264312,20.1658938 17.0418373,20.108875 C17.8572434,20.0518563 18.4757108,19.3971413 18.4232228,18.6465282 C18.4111602,18.4740241 18.36471,18.3114676 18.2904178,18.1640896 M14.4562693,15.8044979 C14.3056406,15.8076503 14.1543734,15.8373946 14.008204,15.8964509 C13.3105482,16.1783222 12.9932125,17.0212051 13.2994149,17.7790826 C13.6056173,18.5369602 14.4194052,18.9228395 15.117061,18.6409683 C15.2773945,18.5761893 15.4176411,18.4817799 15.5348484,18.3655814" id="Oval-2" stroke="#2364AA" fill="#F7F9F9"></path>
                <path d="M16.7407078,14.0580862 C16.6893251,13.9105261 16.6115091,13.7708584 16.5064155,13.6456127 C16.0048114,13.0478241 15.0717465,13.0049517 14.4223568,13.5498543 C13.7729671,14.094757 13.6531632,15.0210912 14.1547674,15.6188797 C14.2700448,15.756262 14.4081103,15.8643358 14.5602835,15.9427023 M19.227799,15.6045798 C19.3522589,15.5101133 19.4610443,15.3929462 19.5476844,15.2542932 C19.9612108,14.5925125 19.7136521,13.6918668 18.9947464,13.2426447 C18.2758407,12.7934225 17.3578231,12.9657353 16.9442966,13.627516 C16.849261,13.7796048 16.7891413,13.9443095 16.7616345,14.1132514 M18.5280265,18.4108957 C18.6563297,18.5000723 18.8013788,18.5673268 18.9600189,18.6068802 C19.7171964,18.7956658 20.4972615,18.2819086 20.7023431,17.4593714 C20.9074246,16.6368342 20.4598624,15.8169951 19.7026849,15.6282095 C19.5286722,15.5848233 19.3534507,15.5785426 19.1842773,15.604588 M15.6084522,18.5988007 C15.563288,18.7483814 15.5441478,18.9071141 15.5555528,19.0702124 C15.6099877,19.848669 16.3396533,20.4317953 17.1853063,20.3726615 C18.0309594,20.3135277 18.6723683,19.6345265 18.6179333,18.8560699 C18.6054232,18.6771669 18.5572501,18.5085805 18.480202,18.3557356 M14.5038285,15.9086166 C14.3476123,15.9118859 14.1907339,15.9427335 14.0391425,16.0039805 C13.3156076,16.2963075 12.9865006,17.1704566 13.3040614,17.9564471 C13.6216221,18.7424376 14.4655969,19.1426309 15.1891317,18.8503038 C15.3554128,18.7831219 15.5008616,18.6852104 15.6224167,18.5647017" id="Oval-2" fill="#F5E196" opacity="0.692991395"></path>
                <polygon id="Path-10" stroke="#2364AA" fill="#F7F9F9" points="14.5060948 15.832358 16.634622 14.0167199 18.9649488 15.5132634 18.3336202 18.1855176 15.5006625 18.3537557"></polygon>
                <polygon id="Path-10" fill="#FF7058" opacity="0.694067029" points="14.5060948 16.0032522 16.8349664 14.0167199 19.3846317 15.6541233 18.6938803 18.5778994 15.5942747 18.7619726"></polygon>
            </g>
        </g>
    </g>
</svg>