<?xml version="1.0" encoding="UTF-8"?>
<svg width="34px" height="32px" viewBox="0 0 34 32" version="1.1" xmlns="http://www.w3.org/2000/svg" xmlns:xlink="http://www.w3.org/1999/xlink">
    <!-- Generator: Sketch 42 (36781) - http://www.bohemiancoding.com/sketch -->
    <title>Group 2</title>
    <desc>Created with Sketch.</desc>
    <defs></defs>
    <g id="icons" stroke="none" stroke-width="1" fill="none" fill-rule="evenodd">
        <g id="32-copy" transform="translate(-2.000000, -3.000000)">
            <g id="Group-2" transform="translate(3.000000, 4.000000)">
                <path d="M13.8285714,6.27012062 C13.8285714,6.27012062 19.5651748,-0.649017085 26.0556231,0.0495474565 L26.0073098,3.50405425 C26.0073098,3.50405425 17.1773918,2.98663365 17.1773918,6.27245696 C17.1773918,9.55828028 13.8285714,6.27012062 13.8285714,6.27012062 Z" id="Path-2" stroke="#2364AA" fill="#F7F9F9"></path>
                <path d="M13.8285714,7.03868556 C13.8285714,7.03868556 20.0216559,-0.728570861 27.0285714,0.0556207747 L26.9764137,3.93356644 C26.9764137,3.93356644 17.4438689,3.3527226 17.4438689,7.04130828 C17.4438689,10.729894 13.8285714,7.03868556 13.8285714,7.03868556 Z" id="Path-2" fill="#7EAE8B" opacity="0.504868659"></path>
                <g id="Group" transform="translate(0.000000, 5.890000)" opacity="0.65942029">
                    <path d="M0,11.8081099 C0,5.28667088 5.27923209,0 10.0297685,0 L10.0297685,0 L19.9332163,0 C26.4555009,0 31.7428571,5.28523699 31.7428571,11.8081099 L31.7428571,11.8081099 C31.7428571,18.3295489 26.465537,23.6162198 19.934269,23.6162198 L11.8085882,23.6162198 C5.28688501,23.6162198 0,18.3309828 0,11.8081099 L0,11.8081099 Z" id="Rectangle" stroke="#2364AA" fill="#F7F9F9"></path>
                    <path d="M0.314285714,12.43224 C0.314285714,5.75682946 5.71816076,0.34534 10.5808576,0.34534 L10.5808576,0.34534 L20.7181264,0.34534 C27.3944024,0.34534 32.8065934,5.75536172 32.8065934,12.43224 L32.8065934,12.43224 C32.8065934,19.1076505 27.4046755,24.51914 20.7192038,24.51914 L12.4016753,24.51914 C5.72599436,24.51914 0.314285714,19.1091183 0.314285714,12.43224 L0.314285714,12.43224 Z" id="Rectangle" fill="#F8B64C"></path>
                    <path d="M3.88078818,11.8081099 C3.88078818,5.28667088 9.1641193,0 11.4581368,0 L11.4581368,0 L16.0493592,0 C22.5733386,0 27.862069,5.28523699 27.862069,11.8081099 L27.862069,11.8081099 C27.862069,18.3295489 22.5695872,23.6162198 16.0470671,23.6162198 L15.69579,23.6162198 C9.17054468,23.6162198 3.88078818,18.3309828 3.88078818,11.8081099 L3.88078818,11.8081099 Z" id="Rectangle" stroke="#2364AA" fill="#F7F9F9"></path>
                    <path d="M7.96059113,7.96245084 C7.96059113,3.56491067 11.5226135,0 12.991196,0 L12.991196,0 L15.9239971,0 C20.3189556,0 23.8817734,3.56115665 23.8817734,7.96245084 L23.8817734,15.653769 C23.8817734,20.0513091 20.3087493,23.6162198 15.9211823,23.6162198 L15.9211823,23.6162198 C11.5246692,23.6162198 7.96059113,20.0550631 7.96059113,15.653769 L7.96059113,7.96245084 Z" id="Rectangle" stroke="#2364AA" fill="#F7F9F9"></path>
                    <path d="M11.9408867,3.97946466 C11.9408867,1.78166702 13.7151199,0 14.4561891,0 L14.4561891,0 L15.9154266,0 C18.1168619,0 19.9014778,1.77505483 19.9014778,3.97946466 L19.9014778,19.6367551 C19.9014778,21.8345528 18.1149658,23.6162198 15.9211823,23.6162198 L15.9211823,23.6162198 C13.7229257,23.6162198 11.9408867,21.841165 11.9408867,19.6367551 L11.9408867,3.97946466 Z" id="Rectangle" stroke="#2364AA" fill="#F7F9F9"></path>
                </g>
            </g>
        </g>
    </g>
</svg>