<?xml version="1.0" encoding="UTF-8"?>
<svg width="94px" height="173px" viewBox="0 0 94 173" version="1.1" xmlns="http://www.w3.org/2000/svg" xmlns:xlink="http://www.w3.org/1999/xlink">
    <!-- Generator: Sketch 42 (36781) - http://www.bohemiancoding.com/sketch -->
    <title>Combined Shape</title>
    <desc>Created with Sketch.</desc>
    <defs></defs>
    <g id="icons" stroke="none" stroke-width="1" fill="none" fill-rule="evenodd">
        <g id="Group-2" transform="translate(-35.000000, -36.000000)" fill="#56BB5F">
            <path d="M100.620915,123.761061 C97.1477717,67.3489234 43.0568314,36.888579 43.0568314,36.888579 L42.9300638,36.347914 C42.9300638,36.347914 38.7167705,35.5651075 37.013472,36.347914 C35.3101735,37.1307205 31.9452823,39.1107147 41.2759267,43.0618089 C63.6425171,52.5330202 82.5061408,85.2028148 91.7603995,112.244121 C101.014658,139.285427 84.7468728,202.628235 86.7304728,206.443648 C88.7140728,210.25906 92.0067674,206.772195 92.0067674,206.772195 C92.0067674,206.772195 98.319776,195.482563 100.725269,133.10035 C100.748787,132.49047 100.766332,131.883319 100.778021,131.278902 C108.257012,121.167892 129.086866,92.516016 128.103363,88.3464861 C126.905763,83.2693014 123.076631,88.9758233 123.076631,88.9758233 L100.620915,123.761061 Z" id="Combined-Shape"></path>
        </g>
    </g>
</svg>