<?xml version="1.0" encoding="UTF-8"?>
<svg width="83px" height="82px" viewBox="0 0 83 82" version="1.1" xmlns="http://www.w3.org/2000/svg" xmlns:xlink="http://www.w3.org/1999/xlink">
    <!-- Generator: Sketch 42 (36781) - http://www.bohemiancoding.com/sketch -->
    <title>Group 2</title>
    <desc>Created with Sketch.</desc>
    <defs></defs>
    <g id="icons" stroke="none" stroke-width="1" fill="none" fill-rule="evenodd">
        <g id="Group-2" transform="translate(1.000000, 1.000000)">
            <g id="Group">
                <path d="M31.1893764,51.8359922 C36.5152735,45.8282047 40.9189644,42.0269162 40.9189644,42.0269162 C40.9189644,42.0269162 45.0725329,44.8775974 50.6808961,49.6366615 C46.5638134,42.6510221 44.2805854,37.2196834 44.2805854,37.2196834 C44.2805854,37.2196834 48.3750952,34.07361 54.7687106,30.1427916 C46.7858452,31.9236553 40.8491941,32.4222666 40.8491941,32.4222666 C40.8491941,32.4222666 39.1902525,27.7472535 37.4645988,20.6921648 C36.6860679,28.6396377 35.3668567,34.2645329 35.3668567,34.2645329 C35.3668567,34.2645329 30.2047628,34.4030766 22.7213308,33.8250344 C30.2743319,37.0903892 35.4099771,40.2005328 35.4099771,40.2005328 C35.4099771,40.2005328 33.9823735,45.0316112 31.1893764,51.8359922 Z M27.2267708,58.3227779 C22.9199545,62.5448881 16.1942999,63.9616055 10.1308111,61.3878072 C2.16778082,58.0077014 -1.63777962,49.0251619 1.63085399,41.3247436 C4.07886759,35.557585 9.80060754,32.1452007 15.8644893,32.2152386 C10.368666,29.4837433 6.82145077,23.4383505 7.40486938,16.7698453 C8.15882936,8.15204327 15.5257493,1.75698285 23.8593455,2.48607805 C29.9927138,3.02267824 34.9403238,7.26865453 36.8247455,12.9088373 C37.8419993,6.97970929 42.4438019,1.90095265 48.8469015,0.422680637 C57.2759047,-1.52330809 65.634472,3.50686675 67.5162842,11.6578906 C68.9265417,17.7663871 66.2990949,23.8941036 61.3460751,27.400608 C67.3734147,26.4196259 73.753569,29.2259673 77.1854277,34.9375392 C81.6408782,42.3526541 79.439837,51.8565335 72.2692646,56.1650481 C66.959723,59.3553425 60.4142474,58.8025434 55.5654618,55.2902797 C58.3206797,60.7093816 57.6110293,67.6079752 53.2575679,72.6160596 C47.5821845,79.1448413 37.8632989,79.988387 31.5498293,74.5001716 C26.8692459,70.4314025 25.3743784,64.0248258 27.2267708,58.3227779 Z" id="Oval" stroke="#2364AA" fill="#F7F9F9"></path>
                <path d="M32.1214689,53.4088783 C37.6089723,47.2187934 42.1462867,43.3021605 42.1462867,43.3021605 C42.1462867,43.3021605 46.425889,46.2393414 52.2044298,51.1428122 C47.9624203,43.9452039 45.6099111,38.3490593 45.6099111,38.3490593 C45.6099111,38.3490593 49.8286627,35.107523 56.4162828,31.0574298 C48.1911893,32.8923312 42.0743993,33.4060721 42.0743993,33.4060721 C42.0743993,33.4060721 40.3651196,28.5892026 38.5871035,21.3200378 C37.7849492,29.5086649 36.4257085,35.3042392 36.4257085,35.3042392 C36.4257085,35.3042392 31.1069786,35.4469869 23.396473,34.8514048 C31.1786587,38.2158419 36.4701373,41.4203582 36.4701373,41.4203582 C36.4701373,41.4203582 34.9992153,46.3980285 32.1214689,53.4088783 Z M28.0386238,60.0924959 C23.6011236,64.4427198 16.671389,65.9024253 10.4239127,63.250529 C2.21925607,59.7678589 -1.70177844,50.5127575 1.666037,42.5786816 C4.18833193,36.6365271 10.0836896,33.1205991 16.3315708,33.1927621 C10.6689849,30.3783837 7.01413472,24.1495524 7.6152563,17.2787013 C8.39209408,8.3994049 15.9825522,1.81029588 24.5690191,2.56151439 C30.8884953,3.11439692 35.9862331,7.48921104 37.9278349,13.3005368 C38.9759557,7.19149819 43.7173932,1.95863423 50.3147853,0.435506253 C58.9995541,-1.56953061 67.6117497,3.6132774 69.5506626,12.0116319 C71.0037123,18.3054817 68.2965395,24.6191346 63.1932277,28.2320387 C69.4034579,27.2212902 75.9772086,30.1127858 79.5132019,35.9976669 C84.1038464,43.6377824 81.8360179,53.4300429 74.4478651,57.8692929 C68.9772134,61.1563921 62.2331251,60.5868191 57.2372103,56.967981 C60.0760312,62.5515176 59.3448475,69.6594387 54.8592868,74.8194859 C49.0116924,81.5463738 38.9979016,82.4155157 32.4928592,76.7607685 C27.6702504,72.5685387 26.1300233,65.9675639 28.0386238,60.0924959 Z" id="Oval" fill="#FE6B90" opacity="0.559839221"></path>
                <path d="M38.9447051,31.0540855 C38.8250528,30.7164773 38.6454185,30.3963791 38.4040035,30.1086719 C37.2517476,28.7354667 35.1284133,28.6201601 33.6614037,29.8511273 C32.1943942,31.0820946 31.9392359,33.1931933 33.0914918,34.5663985 C33.3563004,34.8819851 33.6723977,35.1311345 34.02003,35.3127738 M44.5221615,34.5418757 C44.8062714,34.323753 45.0551928,34.0539948 45.2542173,33.7354891 C46.2041463,32.2152848 45.6576631,30.1602423 44.0336128,29.145423 C42.4095625,28.1306038 40.32294,28.5402993 39.373011,30.0605035 C39.1547006,30.4098731 39.0154249,30.7874908 38.9500999,31.1742384 M42.9259269,40.9640764 C43.2211688,41.1668773 43.554645,41.3202558 43.9190639,41.4111156 C45.6584082,41.8447829 47.4439972,40.6900033 47.9072886,38.8318433 C48.3705799,36.9736833 47.3361345,35.1157903 45.5967902,34.682123 C45.1970583,34.5824587 44.7948839,34.5666899 44.4068786,34.6240737 M36.3619433,41.4454244 C36.2603029,41.788885 36.2174811,42.1534363 36.2436799,42.5280965 C36.3687248,44.3163219 38.0187627,45.6576714 39.9291428,45.5240846 C41.8395229,45.3904978 43.286823,43.8325613 43.1617781,42.044336 C43.1330406,41.6333704 43.0237589,41.246007 42.8492834,40.8947246 M33.9014129,35.3207132 C33.5433538,35.3301826 33.1834123,35.4021092 32.8351851,35.5428021 C31.1731228,36.2143189 30.4073133,38.1980981 31.1247018,39.9736969 C31.8420903,41.7492957 33.7710163,42.6443311 35.4330787,41.9728143 C35.8150498,41.8184879 36.1496843,41.594853 36.4298579,41.3203647" id="Oval-2" stroke="#2364AA" fill="#F7F9F9"></path>
                <path d="M39.2444101,31.1457634 C39.1203194,30.7956319 38.9340217,30.4636599 38.6836516,30.1652804 C37.4886535,28.7411372 35.2865557,28.6215533 33.7651284,29.8981824 C32.2437011,31.1748115 31.9790779,33.36422 33.174076,34.7883632 C33.4487075,35.1156564 33.7765301,35.3740477 34.1370576,35.5624248 M45.0287584,34.7629308 C45.3234071,34.536717 45.5815621,34.2569523 45.7879693,33.9266318 C46.7731352,32.3500367 46.2063806,30.2187638 44.5220873,29.1663005 C42.837794,28.1138372 40.6737697,28.5387301 39.6886037,30.1153252 C39.4621952,30.4776545 39.3177532,30.8692796 39.250005,31.2703734 M43.3733126,41.4233585 C43.6795062,41.6336822 44.0253525,41.7927502 44.4032893,41.8869804 C46.2071534,42.3367342 48.0589775,41.1391189 48.5394543,39.2120318 C49.0199311,37.2849446 47.9471137,35.3581343 46.1432496,34.9083805 C45.72869,34.8050192 45.3115973,34.7886655 44.9091991,34.8481779 M36.5658426,41.9225618 C36.4604319,42.2787629 36.4160217,42.656837 36.4431923,43.0453949 C36.5728756,44.8999532 38.2841206,46.2910592 40.2653649,46.1525171 C42.2466091,46.013975 43.7475958,44.3982479 43.6179125,42.5436896 C43.588109,42.1174795 43.4747735,41.7157472 43.293826,41.3514342 M34.0140405,35.5706587 C33.6426995,35.5804794 33.2694061,35.6550741 32.9082618,35.8009859 C31.1845464,36.4974121 30.3903297,38.5547782 31.1343293,40.3962416 C31.8783288,42.237705 33.878807,43.1659411 35.6025223,42.4695149 C35.9986624,42.3094639 36.34571,42.0775333 36.6362764,41.7928631" id="Oval-2" fill="#F5E196" opacity="0.692991395"></path>
                <polygon id="Path-10" stroke="#2364AA" fill="#F7F9F9" points="33.9857078 35.3359117 38.972543 31.010421 44.4321657 34.5757158 42.9530531 40.9419685 36.3158378 41.3427709"></polygon>
                <polygon id="Path-10" fill="#FF7058" opacity="0.694067029" points="33.9857078 35.743042 39.4419213 31.010421 45.4154228 34.9112938 43.7970909 41.8767604 36.5351578 42.3152877"></polygon>
            </g>
        </g>
    </g>
</svg>