<?xml version="1.0" encoding="UTF-8"?>
<svg width="62px" height="107px" viewBox="0 0 62 107" version="1.1" xmlns="http://www.w3.org/2000/svg" xmlns:xlink="http://www.w3.org/1999/xlink">
    <!-- Generator: Sketch 42 (36781) - http://www.bohemiancoding.com/sketch -->
    <title>cactus2@SVG</title>
    <desc>Created with Sketch.</desc>
    <defs></defs>
    <g id="icons" stroke="none" stroke-width="1" fill="none" fill-rule="evenodd">
        <g id="cactus" transform="translate(-26.000000, -7.000000)">
            <g id="cactus2" transform="translate(27.000000, 8.000000)">
                <g id="Group-2">
                    <path d="M17.9505131,50.7070206 L17.9505131,72.5780751 L43.9214682,72.7269913 L43.9214682,36.8974957 C48.9213192,36.9822012 55.4747491,29.9495677 56.2194793,29.0317419 C56.7073779,28.4304425 56.2194793,29.0317419 56.2194793,29.0317419 C56.6396954,28.3484021 58.0527232,22.1757966 58.0527232,18.1700763 L58.0527232,10.203912 C58.0527232,10.203912 57.4416419,5.34005588 52.8585321,5.49695446 C48.2754224,5.65385304 47.9698818,10.203912 47.9698818,10.203912 C47.9698818,10.203912 47.9698818,18.833334 47.9698818,22.5989 C47.9698818,25.6838162 44.9964143,26.3467383 43.9214682,26.4856001 L43.9214682,12.9811598 C43.9214682,5.81332602 38.1076719,0 30.9359906,0 C23.7627326,0 17.9505131,5.80933162 17.9505131,12.9755053 L17.9505131,38.0063979 C16.9760567,37.9217656 12.6035517,37.3138629 12.6035517,33.2189666 C12.6035517,28.6105551 12.6035517,18.0496119 12.6035517,18.0496119 C12.6035517,18.0496119 12.2216259,12.4811146 6.49273877,12.2890975 C0.763851621,12.0970803 0,18.0496119 0,18.0496119 L0,28.6682238 C0,33.0903962 1.57221378,39.8974418 2.29155486,41.0916697 C2.29155486,41.0916697 1.68168162,40.3557815 2.29155486,41.0916697 C3.23675946,42.232177 11.6674951,51.0877119 17.9505131,50.7070206 Z" id="Combined-Shape" stroke="#2364AA"></path>
                    <path d="M19.7314473,51.8771826 L19.7314473,72.7946338 L46.3017321,72.5842478 L46.3017321,37.7489764 C51.4169643,37.8356366 58.1216271,30.6407116 58.8835434,29.7017052 C59.3827012,29.0865296 58.8835434,29.7017052 58.8835434,29.7017052 C59.3134569,29.0025959 60.759093,22.6875457 60.759093,18.5893857 L60.759093,10.4393868 C60.759093,10.4393868 60.1339098,5.46328793 55.445036,5.62380725 C50.7561622,5.78432657 50.4435706,10.4393868 50.4435706,10.4393868 C50.4435706,10.4393868 50.4435706,19.2679494 50.4435706,23.1204131 C50.4435706,26.2765196 47.4014846,26.95474 46.3017321,27.0968063 L46.3017321,13.2919522 C46.3017321,5.93987364 40.3537712,0 33.0165897,0 C25.6777949,0 19.7314473,5.94931051 19.7314473,13.2881569 L19.7314473,38.8834686 C18.7345034,38.7968832 14.2610945,38.174952 14.2610945,33.9855581 C14.2610945,29.2707986 14.2610945,18.4661414 14.2610945,18.4661414 C14.2610945,18.4661414 13.870355,12.7691403 8.00926277,12.572692 C2.14817053,12.3762437 1.36669156,18.4661414 1.36669156,18.4661414 L1.36669156,29.5232114 C1.36669156,33.9406148 2.93318357,40.7388208 3.71112846,42.039939 C3.71112846,42.039939 3.08718122,41.2870688 3.71112846,42.039939 C4.67814547,43.2067657 13.3034366,52.2666591 19.7314473,51.8771826 Z" id="Combined-Shape" fill="#8FD094" opacity="0.55"></path>
                    <path d="M22.4297044,8.97228994 C22.4297044,4.01703104 26.4454632,0 31.4015862,0 L31.4015862,0 C36.3566196,0 40.3734679,4.01371248 40.3734679,8.97244179 L40.3734679,72.7269913 L22.4297044,72.5780751 L22.4297044,8.97228994 Z" id="Combined-Shape" stroke="#8FD094" opacity="0.693953804"></path>
                    <path d="M31.7534247,0 L31.7534247,72.4454371" id="Path-20" stroke="#8FD094" opacity="0.69"></path>
                </g>
                <g id="vase" transform="translate(11.677204, 72.658095)">
                    <path d="M0.503242092,1.00210495 C0.503242092,0.448657669 0.943119458,0 1.50883235,0 L36.378108,0 C36.9334802,0 37.3836983,0.448582481 37.3836983,1.00210495 L37.3836983,19.7358853 C37.3836983,26.3615063 32.0209633,31.7326333 25.3841864,31.7326333 L12.502754,31.7326333 C5.87560655,31.7326333 0.503242092,26.367577 0.503242092,19.7358853 L0.503242092,1.00210495 Z" id="Path-19" stroke="#2364AA"></path>
                    <path d="M1.76461513,2.6566967 C1.76461513,1.54710586 2.65799796,0.647604762 3.77365957,0.647604762 L36.6360268,0.647604762 C37.7455915,0.647604762 38.6450713,1.54618503 38.6450713,2.6566967 L38.6450713,20.3834901 C38.6450713,27.009111 33.2823363,32.3802381 26.6455594,32.3802381 L13.764127,32.3802381 C7.13697959,32.3802381 1.76461513,27.0151818 1.76461513,20.3834901 L1.76461513,2.6566967 Z" id="Path-19" fill="#2364AA" opacity="0.439999998"></path>
                </g>
            </g>
        </g>
    </g>
</svg>