<?xml version="1.0" encoding="UTF-8"?>
<svg width="87px" height="86px" viewBox="0 0 87 86" version="1.1" xmlns="http://www.w3.org/2000/svg" xmlns:xlink="http://www.w3.org/1999/xlink">
    <!-- Generator: Sketch 42 (36781) - http://www.bohemiancoding.com/sketch -->
    <title>Group@SVG</title>
    <desc>Created with Sketch.</desc>
    <defs></defs>
    <g id="icons" stroke="none" stroke-width="1" fill="none" fill-rule="evenodd">
        <g id="flower" transform="translate(-16.000000, -16.000000)">
            <g id="Group" transform="translate(17.000000, 17.000000)">
                <path d="M32.714329,54.3846104 C38.2953929,48.0905746 42.9085422,44.109133 42.9085422,44.109133 C42.9085422,44.109133 47.263945,47.0987533 53.1460979,52.0897201 C48.827726,44.7626593 46.4332665,39.065431 46.4332665,39.065431 C46.4332665,39.065431 50.7384052,35.7579624 57.4588467,31.6275319 C49.0782771,33.4982161 42.843766,34.0213354 42.843766,34.0213354 C42.843766,34.0213354 41.1073195,29.1269001 39.2987981,21.7379602 C38.4819283,30.0600451 37.1006083,35.9476149 37.1006083,35.9476149 C37.1006083,35.9476149 31.6731636,36.0929277 23.8078978,35.4842554 C31.7431845,38.9129216 37.1406423,42.1822168 37.1406423,42.1822168 C37.1406423,42.1822168 35.6432712,47.248182 32.714329,54.3846104 Z M28.5465458,61.2063856 C24.0280449,65.6321903 16.9774035,67.1172534 10.6214328,64.4193039 C2.26996201,60.8743148 -1.71963977,51.4498433 1.71040784,43.3691575 C4.28125885,37.3126121 10.2905295,33.7299479 16.656117,33.8077253 C10.8768315,30.9476517 7.14437584,24.6002584 7.75699531,17.5979858 C8.54773383,8.55980319 16.2780842,1.85314455 25.023216,2.61824445 C31.4522645,3.1807133 36.6399807,7.62475669 38.6227169,13.5303037 C39.6936904,7.31471847 44.5172312,1.99277028 51.2276252,0.443553755 C60.0677993,-1.59736125 68.8350203,3.68216732 70.8097615,12.2357108 C72.2908598,18.6510526 69.5303104,25.0860617 64.3278323,28.7634845 C70.6561032,27.7264761 77.3565528,30.6683868 80.9583895,36.6628498 C85.631179,44.4396775 83.3192693,54.4092643 75.7945945,58.930545 C70.2255323,62.2767752 63.3619408,61.7008268 58.2761519,58.0227164 C61.1710601,63.7090842 60.4294335,70.9482466 55.8623825,76.2020378 C49.9101511,83.0492967 39.7140913,83.9313116 33.0888454,78.1720732 C28.1788546,73.9038833 26.6080192,67.1859196 28.5465458,61.2063856 Z" id="Oval" stroke="#2364AA" fill="#F7F9F9"></path>
                <path d="M33.6919962,56.0348305 C39.4424091,49.5498116 44.1955376,45.4475591 44.1955376,45.4475591 C44.1955376,45.4475591 48.6830986,48.5278949 54.7437367,53.6703052 C50.2943302,46.1209157 47.8272144,40.2508134 47.8272144,40.2508134 C47.8272144,40.2508134 52.2629862,36.8429846 59.1873495,32.5872223 C50.5524839,34.5146696 44.1287958,35.0536622 44.1287958,35.0536622 C44.1287958,35.0536622 42.3396594,30.0107126 40.4762612,22.3975663 C39.6346046,30.9721725 38.2113706,37.0383918 38.2113706,37.0383918 C38.2113706,37.0383918 32.6192382,37.188114 24.5153125,36.5609723 C32.6913837,40.0936764 38.2526193,43.4621734 38.2526193,43.4621734 C38.2526193,43.4621734 36.7098127,48.6818578 33.6919962,56.0348305 Z M29.3977477,63.0636024 C24.7421397,67.6237015 17.477557,69.1538266 10.9287239,66.3740119 C2.3238401,62.7214554 -1.78682022,53.0110123 1.74730709,44.6851301 C4.39616676,38.4448078 10.5877798,34.753433 17.1465216,34.8335705 C11.1918722,31.8867122 7.34616077,25.3467167 7.97736927,18.1319705 C8.79210157,8.81953769 16.7570179,1.90937546 25.7675078,2.69769118 C32.3916361,3.27722732 37.736766,7.85611859 39.7796653,13.9408606 C40.8831359,7.53667273 45.8530399,2.05323793 52.7670508,0.457012734 C61.8754668,-1.6458308 70.9087162,3.79389721 72.9433779,12.6069853 C74.4694179,19.2169911 71.6251038,25.8472609 66.2647642,29.6362697 C72.785057,28.5677948 79.6888218,31.5989734 83.3999509,37.7753295 C88.2145293,45.7881335 85.8324681,56.0602325 78.0794683,60.7187048 C72.3414212,64.1664713 65.2695641,63.5730467 60.0294545,59.7833295 C63.0122044,65.6422416 62.2480743,73.1010657 57.5424429,78.5142754 C51.4095999,85.5693041 40.9041558,86.4780825 34.0778767,80.5440886 C29.0188995,76.1463868 27.4003995,69.2245765 29.3977477,63.0636024 Z" id="Oval" fill="#907AD6" opacity="0.559839221"></path>
                <path d="M40.8452638,32.588888 C40.7196449,32.2346562 40.5311083,31.8987771 40.2777716,31.5968621 C39.0686141,30.1558444 36.8411401,30.0342427 35.302569,31.3252571 C33.763998,32.6162715 33.4969555,34.8310211 34.7061129,36.2720388 C34.9839986,36.60321 35.3156677,36.8646948 35.680398,37.0553618 M46.6933008,36.2466025 C46.9913768,36.0176683 47.2525558,35.7345669 47.4614087,35.4003325 C48.4582478,33.8050565 47.8855705,31.6490258 46.1822983,30.5847032 C44.479026,29.5203806 42.2901533,29.9508033 41.2933142,31.5460794 C41.0642231,31.9127018 40.9180277,32.3089412 40.8494004,32.7147397 M45.0186414,42.9850806 C45.3284814,43.1978232 45.6784355,43.3587361 46.0608504,43.4540828 C47.8860883,43.9091657 49.7596283,42.6982672 50.2455192,40.7494652 C50.7314101,38.8006633 49.6456548,36.8519296 47.820417,36.3968466 C47.4009452,36.2922606 46.9789224,36.2756652 46.571778,36.3357954 M38.135608,43.4919745 C38.0290236,43.8523909 37.9841281,44.2349419 38.0116206,44.6281038 C38.1428406,46.5046365 39.8734293,47.9122908 41.8769986,47.7721876 C43.8805679,47.6320843 45.398407,45.9972779 45.2671871,44.1207452 C45.2370304,43.689485 45.1224013,43.2829891 44.9393996,42.9143531 M35.5563187,37.0667741 C35.180606,37.0767811 34.8029049,37.1522977 34.4374814,37.2999384 C32.6933419,38.0046165 31.8893644,40.0854932 32.6417475,41.9477066 C33.3941305,43.80992 35.4179619,44.7482878 37.1621014,44.0436097 C37.5629353,43.8816623 37.9141135,43.6470294 38.2081566,43.3590696" id="Oval-2" stroke="#2364AA" fill="#F7F9F9"></path>
                <path d="M41.1596188,32.6851402 C41.0293402,32.3177685 40.83381,31.9694302 40.5710759,31.6563159 C39.3170656,30.1618447 37.006965,30.0357322 35.4113217,31.3746359 C33.8156785,32.7135395 33.5387302,35.0104437 34.7927405,36.504915 C35.0809341,36.8483708 35.4249063,37.1195551 35.803166,37.3172949 M47.2245847,36.4785352 C47.5337176,36.2411088 47.8045849,35.947506 48.021185,35.6008734 C49.0550011,33.9464217 48.4610809,31.7104146 46.6946269,30.6066116 C44.928173,29.5028087 42.6581055,29.9491977 41.6242894,31.6036494 C41.3867003,31.9838715 41.2350819,32.394809 41.1639089,32.8156603 M45.487805,43.4669724 C45.8091383,43.6876065 46.1720737,43.8544883 46.568674,43.9533719 C48.4616178,44.4253358 50.4046555,43.1695198 50.9085702,41.1484284 C51.4124849,39.127337 50.2864543,37.1063164 48.3935105,36.6343525 C47.9584787,36.5258869 47.5208012,36.5086759 47.0985542,36.5710366 M38.3494502,43.9926692 C38.2389122,44.3664549 38.1923513,44.7631964 38.2208637,45.1709424 C38.3569512,47.1170838 40.1517348,48.576954 42.2296252,48.4316537 C44.3075155,48.2863535 45.8816578,46.590905 45.7455703,44.6447636 C45.714295,44.1975061 45.5954138,43.7759316 45.4056238,43.3936213 M35.6744841,37.3291304 C35.2848345,37.3395086 34.8931229,37.4178265 34.5141443,37.5709438 C32.7053071,38.3017614 31.8715067,40.4598268 32.6517989,42.3911177 C33.432091,44.3224086 35.5309951,45.2955845 37.3398322,44.5647669 C37.7555347,44.3968121 38.1197396,44.1534757 38.42469,43.8548343" id="Oval-2" fill="#F5E196" opacity="0.692991395"></path>
                <polygon id="Path-10" stroke="#2364AA" fill="#F7F9F9" points="35.6435472 37.080895 40.8736427 32.5417998 46.5995884 36.2831585 45.048324 42.9637941 38.0873421 43.3843892"></polygon>
                <polygon id="Path-10" fill="#FF7058" opacity="0.694067029" points="35.6435472 37.5081305 41.3659175 32.5417998 47.6308092 36.6353083 45.9335344 43.9447486 38.3173606 44.4049315"></polygon>
            </g>
        </g>
    </g>
</svg>