<?xml version="1.0" encoding="UTF-8"?>
<svg width="46px" height="96px" viewBox="0 0 46 96" version="1.1" xmlns="http://www.w3.org/2000/svg" xmlns:xlink="http://www.w3.org/1999/xlink">
    <!-- Generator: Sketch 43.2 (39069) - http://www.bohemiancoding.com/sketch -->
    <title>pepper</title>
    <desc>Created with Sketch.</desc>
    <defs></defs>
    <g id="icons" stroke="none" stroke-width="1" fill="none" fill-rule="evenodd">
        <g id="chilli" transform="translate(-39.000000, -8.000000)">
            <g id="pepper" transform="translate(36.000000, 8.000000)">
                <g id="Group-6" transform="translate(26.547981, 58.604669) rotate(-13.000000) translate(-26.547981, -58.604669) translate(8.547981, 19.604669)">
                    <g id="Group-5" transform="translate(-0.000000, 2.108859)">
                        <g id="Group" transform="translate(0.000000, 0.239798)">
                            <path d="M0.0501166788,15.2768424 C0.0501166788,15.2768424 2.51685851,31.4025872 4.42509605,46.7905813 C6.33333359,62.1785755 5.88082656,70.9092647 12.6466531,72.8219573 C27.935752,77.1441707 31.6670969,62.448972 31.6670969,62.448972 C31.6670969,62.448972 20.0942901,71.3033648 19.1690339,59.1166921 L24.0076342,14.9172544 C24.0076342,14.9172544 25.5766532,0.172032515 12.8133849,0.172032515 C0.0501166788,0.172032515 0.0501166788,15.2768424 0.0501166788,15.2768424 Z" id="Path-3" fill="#FFFFFF"></path>
                            <path d="M0.0501166788,15.2768424 C0.0501166788,15.2768424 2.51685851,31.4025872 4.42509605,46.7905813 C6.33333359,62.1785755 5.88082656,70.9092647 12.6466531,72.8219573 C27.935752,77.1441707 31.6670969,62.448972 31.6670969,62.448972 C31.6670969,62.448972 20.0942901,71.3033648 19.1690339,59.1166921 L24.0076342,14.9172544 C24.0076342,14.9172544 25.5766532,0.172032515 12.8133849,0.172032515 C0.0501166788,0.172032515 0.0501166788,15.2768424 0.0501166788,15.2768424 Z" id="Path-3" stroke="#2364AA" fill="#F7F9F9"></path>
                        </g>
                    </g>
                    <path d="M0.0501166788,15.8957423 C0.0501166788,15.8957423 2.7913234,32.4996022 4.91188319,48.3438379 C7.03244298,64.1880735 6.52958724,73.1776205 14.0482213,75.1470229 C31.0384795,79.5973864 35.1849968,64.4664871 35.1849968,64.4664871 C35.1849968,64.4664871 22.3245283,73.5834054 21.2963224,61.0354078 L26.6732951,15.5254928 C26.6732951,15.5254928 28.4168928,0.343087068 14.2335047,0.343087068 C0.0501166788,0.343087068 0.0501166788,15.8957423 0.0501166788,15.8957423 Z" id="Path-3" fill="#FF0000" opacity="0.649966033"></path>
                </g>
                <g id="Group-4" transform="translate(16.040235, 16.344839) rotate(-4.000000) translate(-16.040235, -16.344839) translate(3.040235, 1.344839)">
                    <path d="M12.9996981,16.2629333 C13.692211,17.1502803 14.9502058,18.3934643 17.2332269,20.0207645 C22.5198461,23.7889805 24.2298447,20.6341316 24.2298447,20.6341316 C24.2298447,20.6341316 22.7804249,22.4948908 20.8953873,22.5159952 C19.0103498,22.5370996 18.5685934,24.0637842 18.5685934,24.0637842 C18.5685934,24.0637842 15.5741163,23.5900633 12.8625927,23.7126475 C10.1510691,23.8352316 8.46651449,27.1973055 8.46651449,27.1973055 C8.46651449,27.1973055 7.92605135,26.2119205 4.56921923,26.2033894 C1.21238712,26.1948584 0.303430444,29.0410026 0.303430444,29.0410026 C0.303430444,29.0410026 0.929433531,25.5985534 3.56769432,23.1711247 C5.19240233,21.6762524 6.28057245,19.0506638 6.87687622,17.2539233 C6.56515085,16.311657 4.52698841,9.53119811 9.01686157,5.63196226 C13.8495179,1.43503594 20.5691367,0.488539363 22.8854582,2.24203729 C25.2017797,3.99553522 23.5095185,8.42603843 21.7629811,8.76535742 C20.0164438,9.10467641 12.3902766,8.31812645 11.9387452,11.2248425 C11.6846447,12.8606047 12.3602791,14.8425053 12.9996981,16.2629333 Z" id="Combined-Shape" fill="#FFFFFF"></path>
                    <path d="M12.9996981,16.2629333 C13.692211,17.1502803 14.9502058,18.3934643 17.2332269,20.0207645 C22.5198461,23.7889805 24.2298447,20.6341316 24.2298447,20.6341316 C24.2298447,20.6341316 22.7804249,22.4948908 20.8953873,22.5159952 C19.0103498,22.5370996 18.5685934,24.0637842 18.5685934,24.0637842 C18.5685934,24.0637842 15.5741163,23.5900633 12.8625927,23.7126475 C10.1510691,23.8352316 8.46651449,27.1973055 8.46651449,27.1973055 C8.46651449,27.1973055 7.92605135,26.2119205 4.56921923,26.2033894 C1.21238712,26.1948584 0.303430444,29.0410026 0.303430444,29.0410026 C0.303430444,29.0410026 0.929433531,25.5985534 3.56769432,23.1711247 C5.19240233,21.6762524 6.28057245,19.0506638 6.87687622,17.2539233 C6.56515085,16.311657 4.52698841,9.53119811 9.01686157,5.63196226 C13.8495179,1.43503594 20.5691367,0.488539363 22.8854582,2.24203729 C25.2017797,3.99553522 23.5095185,8.42603843 21.7629811,8.76535742 C20.0164438,9.10467641 12.3902766,8.31812645 11.9387452,11.2248425 C11.6846447,12.8606047 12.3602791,14.8425053 12.9996981,16.2629333 Z" id="Combined-Shape" stroke="#2364AA" fill="#F7F9F9"></path>
                    <path d="M13.9625099,15.8725131 C14.7021968,16.8203063 16.0458862,18.1481759 18.4844268,19.8863279 C24.1311705,23.9112348 25.9576543,20.5414775 25.9576543,20.5414775 C25.9576543,20.5414775 24.4095,22.5289917 22.3960536,22.5515337 C20.3826073,22.5740758 19.9107585,24.2047581 19.9107585,24.2047581 C19.9107585,24.2047581 16.7122975,23.6987674 13.8160649,23.8297019 C10.9198323,23.9606365 9.12052579,27.5517349 9.12052579,27.5517349 C9.12052579,27.5517349 8.54324629,26.4992255 4.95774673,26.4901133 C1.37224716,26.4810011 0.401372349,29.5210247 0.401372349,29.5210247 C0.401372349,29.5210247 1.07001877,25.8440758 3.88799792,23.2512906 C5.62338107,21.6545876 6.78567734,18.8501439 7.42260134,16.9310094 C7.08964123,15.9245559 4.91263913,8.68221207 9.70836251,4.51736022 C14.8702195,0.034539221 22.0475788,-0.976432713 24.5216881,0.896513516 C26.9957974,2.76945974 25.1882594,7.50176889 23.3227479,7.86420229 C21.4572364,8.2266357 13.3115746,7.38650595 12.8292849,10.4912276 C12.557875,12.2384178 13.2795337,14.3553255 13.9625099,15.8725131 Z" id="Combined-Shape" fill="#4B905E" opacity="0.689999998"></path>
                </g>
            </g>
        </g>
    </g>
</svg>