<?xml version="1.0" encoding="UTF-8"?>
<svg width="75px" height="70px" viewBox="0 0 75 70" version="1.1" xmlns="http://www.w3.org/2000/svg" xmlns:xlink="http://www.w3.org/1999/xlink">
    <!-- Generator: Sketch 42 (36781) - http://www.bohemiancoding.com/sketch -->
    <title>Group 2@SVG</title>
    <desc>Created with Sketch.</desc>
    <defs></defs>
    <g id="icons" stroke="none" stroke-width="1" fill="none" fill-rule="evenodd">
        <g id="pumpkin" transform="translate(-22.000000, -24.000000)">
            <g id="Group-2" transform="translate(23.000000, 25.000000)">
                <path d="M31.0095238,14.1583369 C31.0095238,14.1583369 43.8734222,-1.46552245 58.4277609,0.111881353 L58.3194221,7.91238056 C58.3194221,7.91238056 38.5189999,6.74401146 38.5189999,14.1636125 C38.5189999,21.5832135 31.0095238,14.1583369 31.0095238,14.1583369 Z" id="Path-2" stroke="#2364AA" fill="#F7F9F9"></path>
                <path d="M31.0095238,15.8938061 C31.0095238,15.8938061 44.8970466,-1.64516001 60.6095238,0.125595298 L60.4925641,8.88224679 C60.4925641,8.88224679 39.1165546,7.57066393 39.1165546,15.8997284 C39.1165546,24.2287928 31.0095238,15.8938061 31.0095238,15.8938061 Z" id="Path-2" fill="#7EAE8B" opacity="0.504868659"></path>
                <g id="Group" transform="translate(0.000000, 13.300000)" opacity="0.65942029">
                    <path d="M0,26.663474 C0,11.9376439 11.9369718,0 22.4909961,0 L22.4909961,0 L44.5210842,0 C59.2449228,0 71.1809524,11.9344061 71.1809524,26.663474 L71.1809524,26.663474 C71.1809524,41.389304 59.2468056,53.3269479 44.5239315,53.3269479 L26.6570209,53.3269479 C11.9347548,53.3269479 0,41.3925418 0,26.663474 L0,26.663474 Z" id="Rectangle" stroke="#2364AA" fill="#F7F9F9"></path>
                    <path d="M0.704761905,28.0728 C0.704761905,12.9992923 12.9235662,0.7798 23.7267716,0.7798 L23.7267716,0.7798 L46.2769913,0.7798 C61.3484605,0.7798 73.5663004,12.9959781 73.5663004,28.0728 L73.5663004,28.0728 C73.5663004,43.1463077 61.3503878,55.3658 46.2799058,55.3658 L27.9911565,55.3658 C12.9212969,55.3658 0.704761905,43.1496219 0.704761905,28.0728 L0.704761905,28.0728 Z" id="Rectangle" fill="#F8B64C"></path>
                    <path d="M8.70237349,26.663474 C8.70237349,11.9376439 20.6419592,0 25.6940037,0 L25.6940037,0 L35.8185567,0 C50.5424804,0 62.4785789,11.9344061 62.4785789,26.663474 L62.4785789,26.663474 C62.4785789,41.389304 50.543896,53.3269479 35.8071019,53.3269479 L35.3738505,53.3269479 C20.6436005,53.3269479 8.70237349,41.3925418 8.70237349,26.663474 L8.70237349,26.663474 Z" id="Rectangle" stroke="#2364AA" fill="#F7F9F9"></path>
                    <path d="M17.8510225,17.8497877 C17.8510225,7.99162218 25.8385878,0 29.1317729,0 L29.1317729,0 L35.7083571,0 C45.5637186,0 53.5530676,7.98358291 53.5530676,17.8497877 L53.5530676,35.4771602 C53.5530676,45.3353257 45.5630603,53.3269479 35.7020451,53.3269479 L35.7020451,53.3269479 C25.8431976,53.3269479 17.8510225,45.343365 17.8510225,35.4771602 L17.8510225,17.8497877 Z" id="Rectangle" stroke="#2364AA" fill="#F7F9F9"></path>
                    <path d="M26.7765338,8.92573211 C26.7765338,3.99618639 30.7703164,0 32.416909,0 L32.416909,0 L35.7052011,0 C40.6328818,0 44.6275564,3.98637952 44.6275564,8.92573211 L44.6275564,44.4012158 C44.6275564,49.3307615 40.6325527,53.3269479 35.7020451,53.3269479 L35.7020451,53.3269479 C30.7726213,53.3269479 26.7765338,49.3405684 26.7765338,44.4012158 L26.7765338,8.92573211 Z" id="Rectangle" stroke="#2364AA" fill="#F7F9F9"></path>
                </g>
            </g>
        </g>
    </g>
</svg>